<?xml version="1.0" encoding="UTF-8"?>
<svg width="24px" height="24px" viewBox="0 0 24 24" version="1.1" xmlns="http://www.w3.org/2000/svg">
    <g stroke="none" stroke-width="1" fill="none" fill-rule="evenodd">
        <path d="M21,7.28V5c0-1.1-0.9-2-2-2H5C3.89,3,3,3.9,3,5v14c0,1.1,0.89,2,2,2h14c1.1,0,2-0.9,2-2v-2.28c0.59-0.35,1-0.98,1-1.72V9C22,8.26,21.59,7.63,21,7.28z M20,9v6h-4c-1.1,0-2-0.9-2-2s0.9-2,2-2H20z M5,19V5h14v2H16c-1.1,0-2,0.9-2,2s0.9,2,2,2h3v8H5z" fill="#000000"/>
        <circle fill="#000000" cx="16" cy="12" r="1.5"/>
    </g>
</svg> 